inDegrees=yes
name=ik_MT_012005D6_009-001_orientations
DataType=double
version=3
OpenSimVersion=4.2-2021-02-10-d1304141c
endheader
time	pelvis_tilt	pelvis_list	pelvis_rotation	pelvis_tx	pelvis_ty	pelvis_tz	hip_flexion_r	hip_adduction_r	hip_rotation_r	knee_angle_r	knee_angle_r_beta	ankle_angle_r	subtalar_angle_r	mtp_angle_r	hip_flexion_l	hip_adduction_l	hip_rotation_l	knee_angle_l	knee_angle_l_beta	ankle_angle_l	subtalar_angle_l	mtp_angle_l	lumbar_extension	lumbar_bending	lumbar_rotation	arm_flex_r	arm_add_r	arm_rot_r	elbow_flex_r	pro_sup_r	wrist_flex_r	wrist_dev_r	arm_flex_l	arm_add_l	arm_rot_l	elbow_flex_l	pro_sup_l	wrist_flex_l	wrist_dev_l	pelvis_tilt	pelvis_list	pelvis_rotation	pelvis_tx	pelvis_ty	pelvis_tz	hip_flexion_r	hip_adduction_r	hip_rotation_r	knee_angle_r	knee_angle_r_beta	ankle_angle_r	subtalar_angle_r	mtp_angle_r	hip_flexion_l	hip_adduction_l	hip_rotation_l	knee_angle_l	knee_angle_l_beta	ankle_angle_l	subtalar_angle_l	mtp_angle_l	lumbar_extension	lumbar_bending	lumbar_rotation	arm_flex_r	arm_add_r	arm_rot_r	elbow_flex_r	pro_sup_r	wrist_flex_r	wrist_dev_r	arm_flex_l	arm_add_l	arm_rot_l	elbow_flex_l	pro_sup_l	wrist_flex_l	wrist_dev_l
0	-54.93321695970807	90.01622952468547	-58.36644193792237	0	0.9399999999999999	0	0.3554466072572132	-0.01554478979654468	-0.1242398114539429	0.6401273285196891	0.01117232951466397	0.308391451977123	0	0	0.3552360236714318	0.001572165452862269	-0.09654687277643541	0.6363977587739198	0.01110723624291753	0.3147016340570266	0	0	0.007243304838673045	0.007094871821872246	0.01422337278533457	0	-1.499797503345457	0	18.78511427229664	17.61986342978268	0	0	0	-1.499797503345457	0	18.78511427229664	17.61986342978268	0	0	-54.93321695970807	90.01622952468547	-58.36644193792237	0	0.9399999999999999	0	0.3554466072572132	-0.01554478979654468	-0.1242398114539429	0.6401273285196891	0.01117232951466397	0.308391451977123	0	0	0.3552360236714318	0.001572165452862269	-0.09654687277643541	0.6363977587739198	0.01110723624291753	0.3147016340570266	0	0	0.007243304838673045	0.007094871821872246	0.01422337278533457	0	-1.499797503345457	0	18.78511427229664	17.61986342978268	0	0	0	-1.499797503345457	0	18.78511427229664	17.61986342978268	0	0
0.01	-54.73900668151692	90.01647158167373	-58.56194708398183	0	0.9399999999999999	0	0.3625687778868178	-0.007910590773385054	-0.1120647431321334	0.6454544003104969	0.01126530445690368	0.3125885601196474	0	0	0.3666760524246256	-0.0079405733618662	-0.1236450207517944	0.6532221836884589	0.0114008778524308	0.3202763605347287	0	0	0.02997123149758208	-0.01560747753132955	-0.009676862205561024	0	-2.095036378123367	0	25.48064923918976	23.47047039048363	0	0	0	-2.095036378123367	0	25.48064923918976	23.47047039048363	0	0	-54.73900668151692	90.01647158167373	-58.56194708398183	0	0.9399999999999999	0	0.3625687778868178	-0.007910590773385054	-0.1120647431321334	0.6454544003104969	0.01126530445690368	0.3125885601196474	0	0	0.3666760524246256	-0.0079405733618662	-0.1236450207517944	0.6532221836884589	0.0114008778524308	0.3202763605347287	0	0	0.02997123149758208	-0.01560747753132955	-0.009676862205561024	0	-2.095036378123367	0	25.48064923918976	23.47047039048363	0	0	0	-2.095036378123367	0	25.48064923918976	23.47047039048363	0	0
0.02	-54.5484974934588	89.99170979952103	-58.73931280611788	0	0.9399999999999999	0	0.3192505167287693	0.006458272238568104	-0.1135796820227638	0.6155992586315198	0.01074423393595614	0.3415198913417012	0	0	0.3367627368095184	-0.01470784591112702	-0.107518369921773	0.6362812896196761	0.01110520347269897	0.3378420521652594	0	0	0.01472245361133949	-0.003243864131684938	-0.006638533712543855	0	-2.613559706472827	0	30.522809304238	27.59215823247206	0	0	0	-2.613559706472827	0	30.522809304238	27.59215823247206	0	0	-54.5484974934588	89.99170979952103	-58.73931280611788	0	0.9399999999999999	0	0.3192505167287693	0.006458272238568104	-0.1135796820227638	0.6155992586315198	0.01074423393595614	0.3415198913417012	0	0	0.3367627368095184	-0.01470784591112702	-0.107518369921773	0.6362812896196761	0.01110520347269897	0.3378420521652594	0	0	0.01472245361133949	-0.003243864131684938	-0.006638533712543855	0	-2.613559706472827	0	30.522809304238	27.59215823247206	0	0	0	-2.613559706472827	0	30.522809304238	27.59215823247206	0	0
0.03	-54.49247760109274	90.03337716422126	-58.7766809508114	0	0.9399999999999999	0	0.3911651986324762	-0.02244945128728866	-0.1452876662636582	0.6381167484491234	0.01113723827255762	0.2948419705477848	0	0	0.4070244972034945	0.001286200003643346	-0.1169826600331639	0.6560136586862192	0.01144959828212882	0.2947261840310945	0	0	0.08188459364746263	-0.04153842365703486	-0.02437079059709866	0	-3.004014433238809	0	33.96320063577739	30.23909947808411	0	0	0	-3.004014433238809	0	33.96320063577739	30.23909947808411	0	0	-54.49247760109274	90.03337716422126	-58.7766809508114	0	0.9399999999999999	0	0.3911651986324762	-0.02244945128728866	-0.1452876662636582	0.6381167484491234	0.01113723827255762	0.2948419705477848	0	0	0.4070244972034945	0.001286200003643346	-0.1169826600331639	0.6560136586862192	0.01144959828212882	0.2947261840310945	0	0	0.08188459364746263	-0.04153842365703486	-0.02437079059709866	0	-3.004014433238809	0	33.96320063577739	30.23909947808411	0	0	0	-3.004014433238809	0	33.96320063577739	30.23909947808411	0	0
